HIERARCHY
ROOT Hips
{
	OFFSET 0.000000 0.000000 0.000000
	CHANNELS 6 Xposition Yposition Zposition Zrotation Yrotation Xrotation 
	JOINT LowerBack
	{
		OFFSET 0.000000 0.000000 0.000000
		CHANNELS 3 Zrotation Yrotation Xrotation
		JOINT Spine
		{
			OFFSET 0.028270 2.035590 -0.193380
			CHANNELS 3 Zrotation Yrotation Xrotation
			JOINT Spine1
			{
				OFFSET 0.056720 2.048850 -0.042750
				CHANNELS 3 Zrotation Yrotation Xrotation
				JOINT Neck
				{
					OFFSET 0.000000 0.000000 0.000000
					CHANNELS 3 Zrotation Yrotation Xrotation
					JOINT Neck1
					{
						OFFSET -0.054170 1.746240 0.172020
						CHANNELS 3 Zrotation Yrotation Xrotation
						JOINT Head
						{
							OFFSET 0.104070 1.761360 -0.123970
							CHANNELS 3 Zrotation Yrotation Xrotation
							End Site
							{
								OFFSET 0.000000 0.000000 0.000000
							}
						}
					}
				}
				JOINT LeftShoulder
				{
					OFFSET 0.000000 0.000000 0.000000
					CHANNELS 3 Zrotation Yrotation Xrotation
					JOINT LeftArm
					{
						OFFSET 3.362410 1.200890 -0.311210
						CHANNELS 3 Zrotation Yrotation Xrotation
						JOINT LeftForeArm
						{
							OFFSET 4.983000 -0.000000 -0.000000
							CHANNELS 3 Zrotation Yrotation Xrotation
							JOINT LeftHand
							{
								OFFSET 3.483560 -0.000000 -0.000000
								CHANNELS 3 Zrotation Yrotation Xrotation
								JOINT LeftFingerBase
								{
									OFFSET 0.000000 0.000000 0.000000
									CHANNELS 3 Zrotation Yrotation Xrotation
									JOINT LeftHandIndex1
									{
										OFFSET 0.715260 -0.000000 -0.000000
										CHANNELS 3 Zrotation Yrotation Xrotation
										End Site
										{
											OFFSET 0.000000 0.000000 0.000000
										}
									}
								}
								JOINT LThumb
								{
									OFFSET 0.000000 0.000000 0.000000
									CHANNELS 3 Zrotation Yrotation Xrotation
									End Site
									{
										OFFSET 0.000000 0.000000 0.000000
									}
								}
							}
						}
					}
				}
				JOINT RightShoulder
				{
					OFFSET 0.000000 0.000000 0.000000
					CHANNELS 3 Zrotation Yrotation Xrotation
					JOINT RightArm
					{
						OFFSET -3.136600 1.374050 -0.404650
						CHANNELS 3 Zrotation Yrotation Xrotation
						JOINT RightForeArm
						{
							OFFSET -5.241900 -0.000000 -0.000000
							CHANNELS 3 Zrotation Yrotation Xrotation
							JOINT RightHand
							{
								OFFSET -3.444170 -0.000000 -0.000000
								CHANNELS 3 Zrotation Yrotation Xrotation
								JOINT RightFingerBase
								{
									OFFSET 0.000000 0.000000 0.000000
									CHANNELS 3 Zrotation Yrotation Xrotation
									JOINT RightHandIndex1
									{
										OFFSET -0.622530 -0.000000 -0.000000
										CHANNELS 3 Zrotation Yrotation Xrotation
										End Site
										{
											OFFSET 0.000000 0.000000 0.000000
										}
									}
								}
								JOINT RThumb
								{
									OFFSET 0.000000 0.000000 0.000000
									CHANNELS 3 Zrotation Yrotation Xrotation
									End Site
									{
										OFFSET 0.000000 0.000000 0.000000
									}
								}
							}
						}
					}
				}
			}
		}
	}
}
}
MOTION
Frames: 9
Frame Time: 0.008333
-0.034634 16.825952 -0.794976 176.601292 84.784224 170.056448 0.965507 -5.090188 0.074506 -0.184546 -5.265450 -2.020240 -5.266559 -5.188174 2.965141 8.628359 -21.035523 -8.799800 -2.165787 -0.149813 -0.279361 0.000000 0.000000 0.000000 -0.443492 14.834091 1.088971 -30.774735 -6.413180 7.381110 -2.057965 -46.014289 0.001697 0.855156 -0.542674 -0.004510 -0.124862 0.098139 0.000000 0.000000 0.000000 0.000000 0.000000 0.000000 0.000000 14.411017 -20.110423 -1.059739 76.782782 -25.901291 -3.582463 4.655644 23.461688 -0.008311 11.289520 -0.025407 -0.006667 0.042425 0.042688 -0.000000 0.000000 0.000000 0.000000 0.000000 0.000000 0.000000 
0.127225 16.822506 -0.740804 178.256968 84.859246 171.630058 1.132544 -5.052335 0.133744 -0.156912 -5.236913 -2.024618 -5.287793 -5.160249 2.932904 8.702114 -20.962614 -8.814906 -2.162791 -0.149506 -0.282663 0.000000 0.000000 0.000000 -0.402540 14.852284 1.073348 -31.255691 -5.751354 7.677455 -2.077557 -46.150625 0.001963 0.725256 -0.535285 -0.003708 -0.124763 0.093927 0.000000 0.000000 0.000000 0.000000 0.000000 0.000000 0.000000 14.407639 -19.978635 -1.042899 76.495204 -25.290432 -3.773366 4.639908 23.363297 -0.007736 11.077156 0.025833 -0.001354 0.044157 0.040832 -0.000000 0.000000 0.000000 0.000000 0.000000 0.000000 0.000000 
0.286024 16.818598 -0.685907 179.746760 84.937307 173.049847 1.271802 -5.013774 0.203868 -0.135970 -5.205604 -2.025934 -5.311744 -5.129271 2.901962 8.783623 -20.902253 -8.831955 -2.160657 -0.149227 -0.286502 0.000000 0.000000 0.000000 -0.365734 14.861149 1.058187 -31.745059 -5.062066 8.016279 -2.099704 -46.253499 0.002204 0.596540 -0.523779 -0.002904 -0.124780 0.089131 0.000000 0.000000 0.000000 0.000000 0.000000 0.000000 0.000000 14.416404 -19.858552 -1.027029 76.190842 -24.614589 -3.916442 4.616800 23.313392 -0.007040 10.837247 0.111136 0.006960 0.045842 0.038541 -0.000000 0.000000 0.000000 0.000000 0.000000 0.000000 0.000000 
0.441940 16.814629 -0.630304 -178.968213 85.016591 174.275341 1.380448 -4.974571 0.282030 -0.122242 -5.171412 -2.024699 -5.338191 -5.095130 2.871701 8.870268 -20.857224 -8.847414 -2.161035 -0.149171 -0.289958 0.000000 0.000000 0.000000 -0.334455 14.850527 1.042052 -32.243217 -4.334879 8.392809 -2.124288 -46.321322 0.002420 0.468056 -0.508845 -0.002103 -0.124864 0.083663 0.000000 0.000000 0.000000 0.000000 0.000000 0.000000 0.000000 14.441780 -19.753897 -1.013646 75.862757 -23.882694 -3.995930 4.586721 23.319415 -0.006239 10.579712 0.232330 0.018177 0.047401 0.035846 -0.000000 0.000000 0.000000 0.000000 0.000000 0.000000 0.000000 
0.595052 16.811105 -0.574152 -177.902169 85.099706 175.289827 1.459271 -4.934170 0.366730 -0.115488 -5.133801 -2.020606 -5.367001 -5.057244 2.843869 8.959762 -20.829159 -8.860162 -2.164707 -0.149416 -0.292828 0.000000 0.000000 0.000000 -0.314956 14.832813 1.023877 -32.748870 -3.593305 8.810470 -2.151787 -46.336741 0.002604 0.343862 -0.492090 -0.001302 -0.125060 0.077516 0.000000 0.000000 0.000000 0.000000 0.000000 0.000000 0.000000 14.486744 -19.667206 -1.004915 75.505065 -23.096032 -4.008318 4.551184 23.377345 -0.005352 10.317689 0.391751 0.032395 0.048772 0.032778 -0.000000 0.000000 0.000000 0.000000 0.000000 0.000000 0.000000 
0.745522 16.808532 -0.517597 -177.078412 85.193550 176.067893 1.508923 -4.890571 0.456883 -0.115683 -5.090728 -2.013384 -5.398365 -5.013541 2.819951 9.051371 -20.816201 -8.869375 -2.172574 -0.150043 -0.294997 0.000000 0.000000 0.000000 -0.309135 14.822583 1.002531 -33.266084 -2.862774 9.269421 -2.182903 -46.279420 0.002749 0.228692 -0.474197 -0.000703 -0.125431 0.070706 0.000000 0.000000 0.000000 0.000000 0.000000 0.000000 0.000000 14.555960 -19.596492 -1.002676 75.112268 -22.257953 -3.952082 4.511461 23.484247 -0.004395 10.060741 0.588737 0.049114 0.049919 0.029379 -0.000000 0.000000 0.000000 0.000000 0.000000 0.000000 0.000000 
0.893396 16.807468 -0.460661 -176.493388 85.301223 176.616284 1.530405 -4.844940 0.545231 -0.122287 -5.043521 -2.005860 -5.431500 -4.965538 2.795516 9.140416 -20.813993 -8.868898 -2.186008 -0.151283 -0.294659 0.000000 0.000000 0.000000 -0.314278 14.778364 0.976049 -33.805140 -2.066196 9.735804 -2.216492 -46.182125 0.002851 0.117499 -0.451890 -0.000106 -0.125822 0.063113 0.000000 0.000000 0.000000 0.000000 0.000000 0.000000 0.000000 14.643782 -19.538325 -1.003853 74.684386 -21.370432 -3.835117 4.469482 23.622401 -0.003392 9.815219 0.818254 0.067834 0.050896 0.025714 -0.000000 0.000000 0.000000 0.000000 0.000000 0.000000 0.000000 
1.038717 16.808356 -0.403558 -176.175353 85.438501 176.903783 1.525413 -4.793172 0.633540 -0.135223 -4.987993 -1.996699 -5.466785 -4.908999 2.774149 9.228547 -20.816054 -8.861284 -2.204734 -0.153055 -0.292692 0.000000 0.000000 0.000000 -0.332080 14.741810 0.944139 -34.371407 -1.269143 10.217507 -2.254035 -46.005163 0.002901 0.019815 -0.425826 0.000390 -0.126405 0.054877 0.000000 0.000000 0.000000 0.000000 0.000000 0.000000 0.000000 14.754399 -19.484610 -1.010578 74.218937 -20.433532 -3.665542 4.426484 23.784310 -0.002356 9.584737 1.077347 0.088155 0.051717 0.021826 -0.000000 0.000000 0.000000 0.000000 0.000000 0.000000 0.000000 
1.181477 16.811526 -0.346406 -176.134548 85.615786 176.921979 1.495994 -4.734433 0.718787 -0.153997 -4.923415 -1.986460 -5.504128 -4.843259 2.756505 9.315763 -20.809041 -8.846290 -2.228908 -0.155372 -0.289078 0.000000 0.000000 0.000000 -0.360823 14.729686 0.906769 -34.974511 -0.487427 10.705146 -2.296421 -45.735506 0.002897 -0.061320 -0.395293 0.000685 -0.127239 0.046109 0.000000 0.000000 0.000000 0.000000 0.000000 0.000000 0.000000 14.887049 -19.421222 -1.022927 73.719232 -19.450988 -3.469770 4.384208 23.957257 -0.001307 9.372844 1.357882 0.109476 0.052428 0.017782 -0.000000 0.000000 0.000000 0.000000 0.000000 0.000000 0.000000 
